<svg id="Layer_1" data-name="Layer 1" xmlns="http://www.w3.org/2000/svg" viewBox="0 0 677 677"><defs><style>.cls-1{fill:#e2e9f2;}.cls-2{fill:#88a6cf;}.cls-3{fill:#98b3d7;}.cls-4{fill:#fff;}</style></defs><title>Artboard 5</title><rect class="cls-1" x="233.7" y="233.85" width="343.63" height="343.63"/><path class="cls-2" d="M358.58,532.53C334.72,525,313,509.3,297.68,488.39A129.57,129.57,0,0,1,272.74,415a130.94,130.94,0,0,1,5.06-39.43,141.8,141.8,0,0,1,6.93-18.77,145.9,145.9,0,0,1,9.69-17.57,134.12,134.12,0,0,1,12.27-15.95,132.12,132.12,0,0,1,31-25.54,131.53,131.53,0,0,1,37.21-15.22,145.79,145.79,0,0,1,19.89-3.3A142.68,142.68,0,0,1,415,279a134.81,134.81,0,0,1,19.93,2.78,146.67,146.67,0,0,1,19.23,5.75,133.72,133.72,0,0,1,34.69,19.66,138.57,138.57,0,0,1,14.65,13.48,129.43,129.43,0,0,1,33.58,69.83c3.72,25.65-.77,52.1-12.55,74.17a153.91,153.91,0,0,0,4.41-18.07,139.46,139.46,0,0,0,1.93-18.27,128.64,128.64,0,0,0-3.79-35.88,124.71,124.71,0,0,0-35.17-60.31,123.1,123.1,0,0,0-28.33-20,140.77,140.77,0,0,0-15.93-6.74A127,127,0,0,0,431,301.1a128.79,128.79,0,0,0-17.06-2,122.59,122.59,0,0,0-17.14.53,127,127,0,0,0-16.88,2.93,119.2,119.2,0,0,0-45.76,22.66,120.56,120.56,0,0,0-12.6,11.63,129.74,129.74,0,0,0-10.8,13.36,124.5,124.5,0,0,0-8.82,14.8,139.4,139.4,0,0,0-6.67,16,130.43,130.43,0,0,0-4.32,16.79,122.37,122.37,0,0,0-1.9,17.31,124.62,124.62,0,0,0,17.15,67.69,132.37,132.37,0,0,0,10.17,14.86,136.05,136.05,0,0,0,12.27,13.4,137.94,137.94,0,0,0,14.18,11.68A151.25,151.25,0,0,0,358.58,532.53Z"/><path class="cls-2" d="M446.12,323.93c18.92,5.44,36.34,17.61,48.71,34.05a102.23,102.23,0,0,1,20.42,58.18,103.15,103.15,0,0,1-3.85,31.52,112.49,112.49,0,0,1-5.46,15,116,116,0,0,1-7.71,14.09,105.39,105.39,0,0,1-9.78,12.8,113.81,113.81,0,0,1-11.62,11.2,112.06,112.06,0,0,1-13.2,9.3,121,121,0,0,1-14.44,7.25,118.05,118.05,0,0,1-15.37,4.94,114.44,114.44,0,0,1-15.94,2.63,112.93,112.93,0,0,1-16.14.14,105.81,105.81,0,0,1-15.95-2.27,116.87,116.87,0,0,1-15.37-4.66,111.14,111.14,0,0,1-14.44-6.9,112.71,112.71,0,0,1-13.21-9,111.43,111.43,0,0,1-11.62-10.84A102.17,102.17,0,0,1,305,435.59c-2.68-20.4,1.23-41.29,10.93-58.42a123.7,123.7,0,0,0-3.14,14.26,112,112,0,0,0-1.22,14.32,107.3,107.3,0,0,0,.76,14.15A103.29,103.29,0,0,0,315,433.64,97.39,97.39,0,0,0,342.74,480a95.88,95.88,0,0,0,21.92,15.18,113,113,0,0,0,12.28,5.09,96.94,96.94,0,0,0,12.8,3.29A99.32,99.32,0,0,0,402.82,505a92.76,92.76,0,0,0,13.13-.45,97.69,97.69,0,0,0,12.93-2.26,94.63,94.63,0,0,0,24.24-9.9,100.19,100.19,0,0,0,10.82-7.44,93.57,93.57,0,0,0,9.69-8.88,102,102,0,0,0,8.32-10.2,97.57,97.57,0,0,0,6.83-11.33,110.82,110.82,0,0,0,5.2-12.23,95.5,95.5,0,0,0,5-26.19,97.32,97.32,0,0,0-12.62-52.52,103.87,103.87,0,0,0-7.72-11.68,106.93,106.93,0,0,0-9.38-10.63,111.52,111.52,0,0,0-10.91-9.36A123,123,0,0,0,446.12,323.93Z"/><rect class="cls-3" x="100" y="99.84" width="343.63" height="343.63"/><path class="cls-4" d="M224.88,398.53C201,391,179.29,375.3,164,354.38A129.54,129.54,0,0,1,139,281a130,130,0,0,1,5.06-39.43A141.8,141.8,0,0,1,151,222.84a145.15,145.15,0,0,1,9.69-17.57,132.52,132.52,0,0,1,12.27-16,131.47,131.47,0,0,1,31-25.54,150.89,150.89,0,0,1,18-9,148.91,148.91,0,0,1,19.19-6.18,131.44,131.44,0,0,1,40-3.52,132.39,132.39,0,0,1,19.93,2.78,145.16,145.16,0,0,1,19.23,5.75,141,141,0,0,1,18.1,8.54,130.47,130.47,0,0,1,31.24,24.59,129.53,129.53,0,0,1,33.58,69.83c3.72,25.66-.77,52.11-12.55,74.17a153.43,153.43,0,0,0,4.41-18.07,139.49,139.49,0,0,0,1.93-18.26,128.64,128.64,0,0,0-3.79-35.88,124.71,124.71,0,0,0-35.17-60.31,123.44,123.44,0,0,0-28.33-20,142.55,142.55,0,0,0-15.93-6.73,125.42,125.42,0,0,0-16.67-4.38,127.14,127.14,0,0,0-17.06-2,119.61,119.61,0,0,0-17.14.53,127,127,0,0,0-16.88,2.93,130.75,130.75,0,0,0-16.28,5.35,117.87,117.87,0,0,0-29.48,17.31,119.49,119.49,0,0,0-12.6,11.63A131.05,131.05,0,0,0,177,216.23,126.73,126.73,0,0,0,168.19,231a138.51,138.51,0,0,0-6.67,16,130.58,130.58,0,0,0-4.32,16.8,123.13,123.13,0,0,0,15.25,85,131.46,131.46,0,0,0,10.17,14.86,133.83,133.83,0,0,0,12.27,13.41,137.85,137.85,0,0,0,14.18,11.67A151.32,151.32,0,0,0,224.88,398.53Z"/><path class="cls-4" d="M312.42,189.92c18.92,5.45,36.34,17.62,48.71,34.06a102.27,102.27,0,0,1,20.42,58.17,103,103,0,0,1-3.85,31.52,112.12,112.12,0,0,1-5.46,15,118.15,118.15,0,0,1-7.71,14.09,105.39,105.39,0,0,1-9.78,12.8,114.89,114.89,0,0,1-11.62,11.2,112,112,0,0,1-13.2,9.29,105.17,105.17,0,0,1-29.81,12.2,114.42,114.42,0,0,1-15.94,2.62,112.93,112.93,0,0,1-16.14.15,105.83,105.83,0,0,1-16-2.28,115.37,115.37,0,0,1-15.37-4.66,109.8,109.8,0,0,1-14.44-6.89,102.78,102.78,0,0,1-24.83-19.81,102.18,102.18,0,0,1-26.19-55.83c-2.68-20.4,1.23-41.29,10.93-58.43a124.32,124.32,0,0,0-3.14,14.27,111.87,111.87,0,0,0-1.22,14.32,107.39,107.39,0,0,0,.76,14.15,103.91,103.91,0,0,0,2.68,13.74A97.36,97.36,0,0,0,209,346,95.84,95.84,0,0,0,231,361.12a111.06,111.06,0,0,0,12.28,5.09,96.58,96.58,0,0,0,12.8,3.3A102.83,102.83,0,0,0,269.12,371a94.27,94.27,0,0,0,13.13-.45,99.35,99.35,0,0,0,12.93-2.26,103.35,103.35,0,0,0,12.47-4.11,90.91,90.91,0,0,0,22.59-13.24,93.48,93.48,0,0,0,9.69-8.87,102.07,102.07,0,0,0,8.32-10.21,96.61,96.61,0,0,0,6.83-11.32,111.64,111.64,0,0,0,5.2-12.23,96,96,0,0,0,5-26.19,97.37,97.37,0,0,0-12.62-52.53A104.79,104.79,0,0,0,345,217.88a108.11,108.11,0,0,0-9.38-10.62,110.17,110.17,0,0,0-10.91-9.36A121.34,121.34,0,0,0,312.42,189.92Z"/></svg>