<svg id="Layer_1" data-name="Layer 1" xmlns="http://www.w3.org/2000/svg" viewBox="0 0 677 677"><defs><style>.cls-1{fill:#98b3d7;}.cls-2{fill:#bed0ea;}.cls-3{fill:#88a6cf;}.cls-4,.cls-5,.cls-6,.cls-7{fill:none;stroke:#a2badc;stroke-miterlimit:10;stroke-width:10px;}.cls-5{stroke-dasharray:12.33 12.33;}.cls-6{stroke-dasharray:12.29 12.29;}.cls-7{stroke-dasharray:11.55 11.55;}.cls-8{fill:#a2badc;}</style></defs><title>Artboard 3</title><polygon class="cls-1" points="508.83 390.83 167.88 390.83 248.05 341 428.67 341 508.83 390.83"/><polygon class="cls-2" points="508.83 390.83 428.67 341 497.5 283.5 605.5 302.5 508.83 390.83"/><polygon class="cls-2" points="167.88 390.83 248.05 341 178.65 284.27 70.65 303.27 167.88 390.83"/><polygon class="cls-3" points="428.5 390.83 248.5 390.83 248.05 341 428.67 341 428.5 390.83"/><path class="cls-3" d="M470.19,209.13c0-13.08,9-20.52,18.84-20.52a17.21,17.21,0,0,1,12.12,5.16l-5.4,6.6c-1.92-1.68-3.84-2.88-6.48-2.88-4.56,0-8.52,4.2-8.52,11.28,0,7.32,3.36,11.4,8.4,11.4a9.74,9.74,0,0,0,7.08-3.36l5.4,6.48a16.45,16.45,0,0,1-12.84,5.76C478.83,229.05,470.19,222.45,470.19,209.13Z"/><path class="cls-3" d="M502.83,223.47l5.88-7.08c2.76,2.22,6.24,3.78,9.12,3.78,3.12,0,4.44-1,4.44-2.76s-2-2.46-5.28-3.78l-4.86-2c-4.2-1.68-7.86-5.22-7.86-10.86,0-6.66,6-12.12,14.52-12.12a18.75,18.75,0,0,1,13,5.22l-5.16,6.48a12.85,12.85,0,0,0-7.8-2.82c-2.52,0-4.08.9-4.08,2.64s2.22,2.52,5.76,3.9l4.74,1.86c4.86,1.92,7.62,5.28,7.62,10.68,0,6.6-5.52,12.48-15.24,12.48A22.59,22.59,0,0,1,502.83,223.47Z"/><path class="cls-3" d="M535.47,223.47l5.88-7.08c2.76,2.22,6.24,3.78,9.12,3.78,3.12,0,4.44-1,4.44-2.76s-2-2.46-5.28-3.78l-4.86-2c-4.2-1.68-7.86-5.22-7.86-10.86,0-6.66,6-12.12,14.52-12.12a18.75,18.75,0,0,1,13,5.22l-5.16,6.48a12.85,12.85,0,0,0-7.8-2.82c-2.52,0-4.08.9-4.08,2.64s2.22,2.52,5.76,3.9l4.74,1.86c4.86,1.92,7.62,5.28,7.62,10.68,0,6.6-5.52,12.48-15.24,12.48A22.59,22.59,0,0,1,535.47,223.47Z"/><path class="cls-3" d="M159.77,118.48l7-5.21c1.32,2.52,3.24,3.71,4.92,3.71,2.76,0,4.32-1.31,4.32-6.23V86.15h10.32v25.43c0,7.8-4.2,14.28-13.2,14.28C166.73,125.86,162.65,123.46,159.77,118.48Z"/><path class="cls-3" d="M192.29,120.28l5.88-7.07c2.76,2.21,6.24,3.77,9.12,3.77,3.12,0,4.44-1,4.44-2.75s-2-2.46-5.28-3.78l-4.86-2c-4.2-1.68-7.86-5.22-7.86-10.86,0-6.66,6-12.12,14.52-12.12a18.75,18.75,0,0,1,13,5.22l-5.16,6.48a12.85,12.85,0,0,0-7.8-2.82c-2.52,0-4.08.9-4.08,2.64s2.22,2.52,5.76,3.9l4.74,1.86c4.86,1.92,7.62,5.28,7.62,10.67,0,6.6-5.52,12.48-15.24,12.48A22.59,22.59,0,0,1,192.29,120.28Z"/><path class="cls-3" d="M97.16,236.9l-10-19H98.72l2.64,6.36c.84,1.8,1.68,4,2.76,6.48h.24c.84-2.52,1.68-4.68,2.4-6.48l2.28-6.36h11l-10,19.44,10.56,19.55H109.16L106,250c-1-2-1.8-4.07-2.76-6.47H103c-.84,2.4-1.68,4.44-2.52,6.47l-2.88,7h-11Z"/><path class="cls-3" d="M125.6,217.94h11.52c11.88,0,20,5.52,20,19.32s-8.16,19.67-19.44,19.67H125.6Zm10.92,30.71c5.64,0,10.08-2.27,10.08-11.39s-4.44-11-10.08-11h-.6v22.43Z"/><path class="cls-4" d="M177,250c1.82.74,3.66,1.53,5.52,2.35"/><path class="cls-5" d="M193.66,257.63A206,206,0,0,1,238,288c69.3,62.34,74.91,154.36,74.42,190.85"/><path class="cls-4" d="M312.28,485c-.09,2.44-.19,4.45-.28,6"/><path class="cls-4" d="M220,145c1.42,1.35,2.86,2.73,4.32,4.16"/><path class="cls-6" d="M233,157.91A359.21,359.21,0,0,1,297,250c48.9,101.34,36.26,199,26.7,244.15"/><path class="cls-4" d="M322.38,500.16q-.72,3.15-1.38,5.84"/><path class="cls-4" d="M455,230q-2.65,1.5-5.18,3"/><path class="cls-7" d="M440.15,239.33A168.25,168.25,0,0,0,412,264c-66.6,73.1-47.21,183.57-38,221.63"/><path class="cls-4" d="M375.42,491.22c.65,2.5,1.2,4.45,1.58,5.78"/><polygon class="cls-2" points="509 589 168 589 167.88 390.83 508.83 390.83 509 589"/><rect class="cls-8" x="280.5" y="530" width="115" height="59"/></svg>